<mxfile host="app.diagrams.net" modified="2023-08-20T23:11:03.575Z" agent="Mozilla/5.0 (Windows NT 10.0; Win64; x64) AppleWebKit/537.36 (KHTML, like Gecko) Chrome/115.0.0.0 Safari/537.36" etag="f0D5YL8izHxHsPtBB50R" version="21.6.6" type="device">
  <diagram name="Page-1" id="vUj-RAqpk4-10tkhjKZV">
    <mxGraphModel dx="838" dy="448" grid="1" gridSize="10" guides="1" tooltips="1" connect="1" arrows="1" fold="1" page="1" pageScale="1" pageWidth="827" pageHeight="1169" math="0" shadow="0">
      <root>
        <mxCell id="0" />
        <mxCell id="1" parent="0" />
        <mxCell id="vcbYeMagDMkAzuLJpGu_-7" style="edgeStyle=orthogonalEdgeStyle;rounded=0;orthogonalLoop=1;jettySize=auto;html=1;exitX=0.5;exitY=1;exitDx=0;exitDy=0;entryX=0.5;entryY=0;entryDx=0;entryDy=0;" edge="1" parent="1" source="vcbYeMagDMkAzuLJpGu_-1" target="vcbYeMagDMkAzuLJpGu_-5">
          <mxGeometry relative="1" as="geometry" />
        </mxCell>
        <mxCell id="vcbYeMagDMkAzuLJpGu_-1" value="" style="rounded=1;whiteSpace=wrap;html=1;" vertex="1" parent="1">
          <mxGeometry x="200" y="120" width="120" height="40" as="geometry" />
        </mxCell>
        <mxCell id="vcbYeMagDMkAzuLJpGu_-3" value="User Query" style="text;html=1;strokeColor=none;fillColor=none;align=center;verticalAlign=middle;whiteSpace=wrap;rounded=0;" vertex="1" parent="1">
          <mxGeometry x="225" y="125" width="70" height="30" as="geometry" />
        </mxCell>
        <mxCell id="vcbYeMagDMkAzuLJpGu_-19" style="edgeStyle=orthogonalEdgeStyle;rounded=0;orthogonalLoop=1;jettySize=auto;html=1;exitX=0.5;exitY=1;exitDx=0;exitDy=0;entryX=0.498;entryY=-0.041;entryDx=0;entryDy=0;entryPerimeter=0;" edge="1" parent="1" source="vcbYeMagDMkAzuLJpGu_-5" target="vcbYeMagDMkAzuLJpGu_-12">
          <mxGeometry relative="1" as="geometry" />
        </mxCell>
        <mxCell id="vcbYeMagDMkAzuLJpGu_-5" value="" style="rounded=1;whiteSpace=wrap;html=1;" vertex="1" parent="1">
          <mxGeometry x="200" y="200" width="120" height="40" as="geometry" />
        </mxCell>
        <mxCell id="vcbYeMagDMkAzuLJpGu_-6" value="Query Classifier" style="text;html=1;strokeColor=none;fillColor=none;align=center;verticalAlign=middle;whiteSpace=wrap;rounded=0;" vertex="1" parent="1">
          <mxGeometry x="211.25" y="205" width="97.5" height="30" as="geometry" />
        </mxCell>
        <mxCell id="vcbYeMagDMkAzuLJpGu_-134" style="edgeStyle=orthogonalEdgeStyle;rounded=0;orthogonalLoop=1;jettySize=auto;html=1;exitX=0.5;exitY=1;exitDx=0;exitDy=0;entryX=0.5;entryY=0;entryDx=0;entryDy=0;" edge="1" parent="1" source="vcbYeMagDMkAzuLJpGu_-8" target="vcbYeMagDMkAzuLJpGu_-130">
          <mxGeometry relative="1" as="geometry" />
        </mxCell>
        <mxCell id="vcbYeMagDMkAzuLJpGu_-8" value="Static Resolver&lt;br&gt;(Body-type, Age, Color, Brand)" style="rounded=1;whiteSpace=wrap;html=1;" vertex="1" parent="1">
          <mxGeometry x="20" y="280" width="180" height="40" as="geometry" />
        </mxCell>
        <mxCell id="vcbYeMagDMkAzuLJpGu_-21" style="edgeStyle=orthogonalEdgeStyle;rounded=0;orthogonalLoop=1;jettySize=auto;html=1;exitX=0.5;exitY=1;exitDx=0;exitDy=0;entryX=1;entryY=0.5;entryDx=0;entryDy=0;" edge="1" parent="1" source="vcbYeMagDMkAzuLJpGu_-11" target="vcbYeMagDMkAzuLJpGu_-20">
          <mxGeometry relative="1" as="geometry" />
        </mxCell>
        <mxCell id="vcbYeMagDMkAzuLJpGu_-11" value="Dynamic Resolver&lt;br&gt;(Category, Event, and Social media)" style="rounded=1;whiteSpace=wrap;html=1;" vertex="1" parent="1">
          <mxGeometry x="320" y="280" width="200" height="40" as="geometry" />
        </mxCell>
        <mxCell id="vcbYeMagDMkAzuLJpGu_-14" style="edgeStyle=orthogonalEdgeStyle;rounded=0;orthogonalLoop=1;jettySize=auto;html=1;exitX=1;exitY=0.5;exitDx=0;exitDy=0;entryX=0;entryY=0.5;entryDx=0;entryDy=0;" edge="1" parent="1" source="vcbYeMagDMkAzuLJpGu_-12" target="vcbYeMagDMkAzuLJpGu_-11">
          <mxGeometry relative="1" as="geometry" />
        </mxCell>
        <mxCell id="vcbYeMagDMkAzuLJpGu_-16" style="edgeStyle=orthogonalEdgeStyle;rounded=0;orthogonalLoop=1;jettySize=auto;html=1;exitX=0;exitY=0.5;exitDx=0;exitDy=0;entryX=1;entryY=0.5;entryDx=0;entryDy=0;" edge="1" parent="1" source="vcbYeMagDMkAzuLJpGu_-12" target="vcbYeMagDMkAzuLJpGu_-8">
          <mxGeometry relative="1" as="geometry" />
        </mxCell>
        <mxCell id="vcbYeMagDMkAzuLJpGu_-12" value="" style="rhombus;whiteSpace=wrap;html=1;" vertex="1" parent="1">
          <mxGeometry x="220" y="260" width="80" height="80" as="geometry" />
        </mxCell>
        <mxCell id="vcbYeMagDMkAzuLJpGu_-13" value="Is Natural Language" style="text;html=1;strokeColor=none;fillColor=none;align=center;verticalAlign=middle;whiteSpace=wrap;rounded=0;" vertex="1" parent="1">
          <mxGeometry x="230" y="285" width="60" height="30" as="geometry" />
        </mxCell>
        <mxCell id="vcbYeMagDMkAzuLJpGu_-17" value="Yes" style="text;html=1;strokeColor=none;fillColor=none;align=center;verticalAlign=middle;whiteSpace=wrap;rounded=0;" vertex="1" parent="1">
          <mxGeometry x="270" y="260" width="60" height="30" as="geometry" />
        </mxCell>
        <mxCell id="vcbYeMagDMkAzuLJpGu_-18" value="No" style="text;html=1;strokeColor=none;fillColor=none;align=center;verticalAlign=middle;whiteSpace=wrap;rounded=0;" vertex="1" parent="1">
          <mxGeometry x="190" y="260" width="60" height="30" as="geometry" />
        </mxCell>
        <mxCell id="vcbYeMagDMkAzuLJpGu_-24" style="edgeStyle=orthogonalEdgeStyle;rounded=0;orthogonalLoop=1;jettySize=auto;html=1;exitX=0.5;exitY=1;exitDx=0;exitDy=0;" edge="1" parent="1" source="vcbYeMagDMkAzuLJpGu_-20" target="vcbYeMagDMkAzuLJpGu_-23">
          <mxGeometry relative="1" as="geometry" />
        </mxCell>
        <mxCell id="vcbYeMagDMkAzuLJpGu_-20" value="Sort by Score" style="rounded=1;whiteSpace=wrap;html=1;" vertex="1" parent="1">
          <mxGeometry x="200" y="440" width="120" height="40" as="geometry" />
        </mxCell>
        <mxCell id="vcbYeMagDMkAzuLJpGu_-23" value="Response" style="rounded=1;whiteSpace=wrap;html=1;" vertex="1" parent="1">
          <mxGeometry x="200" y="520" width="120" height="40" as="geometry" />
        </mxCell>
        <mxCell id="vcbYeMagDMkAzuLJpGu_-45" value="" style="group" vertex="1" connectable="0" parent="1">
          <mxGeometry x="880" y="160" width="120" height="40" as="geometry" />
        </mxCell>
        <mxCell id="vcbYeMagDMkAzuLJpGu_-46" value="" style="rounded=1;whiteSpace=wrap;html=1;" vertex="1" parent="vcbYeMagDMkAzuLJpGu_-45">
          <mxGeometry width="120" height="40" as="geometry" />
        </mxCell>
        <mxCell id="vcbYeMagDMkAzuLJpGu_-47" value="Trends" style="text;html=1;strokeColor=none;fillColor=none;align=center;verticalAlign=middle;whiteSpace=wrap;rounded=0;" vertex="1" parent="vcbYeMagDMkAzuLJpGu_-45">
          <mxGeometry x="25" y="5" width="70" height="30" as="geometry" />
        </mxCell>
        <mxCell id="vcbYeMagDMkAzuLJpGu_-50" value="" style="group" vertex="1" connectable="0" parent="1">
          <mxGeometry x="1080" y="80" width="140" height="40" as="geometry" />
        </mxCell>
        <mxCell id="vcbYeMagDMkAzuLJpGu_-51" value="" style="rounded=1;whiteSpace=wrap;html=1;" vertex="1" parent="vcbYeMagDMkAzuLJpGu_-50">
          <mxGeometry width="120" height="40" as="geometry" />
        </mxCell>
        <mxCell id="vcbYeMagDMkAzuLJpGu_-52" value="Instagram Scrapper" style="text;html=1;strokeColor=none;fillColor=none;align=center;verticalAlign=middle;whiteSpace=wrap;rounded=0;" vertex="1" parent="vcbYeMagDMkAzuLJpGu_-50">
          <mxGeometry x="2.5" y="5" width="115" height="30" as="geometry" />
        </mxCell>
        <mxCell id="vcbYeMagDMkAzuLJpGu_-53" value="" style="group" vertex="1" connectable="0" parent="1">
          <mxGeometry x="1080" y="160" width="140" height="40" as="geometry" />
        </mxCell>
        <mxCell id="vcbYeMagDMkAzuLJpGu_-54" value="" style="rounded=1;whiteSpace=wrap;html=1;" vertex="1" parent="vcbYeMagDMkAzuLJpGu_-53">
          <mxGeometry width="120" height="40" as="geometry" />
        </mxCell>
        <mxCell id="vcbYeMagDMkAzuLJpGu_-55" value="Twitter Scrapper" style="text;html=1;strokeColor=none;fillColor=none;align=center;verticalAlign=middle;whiteSpace=wrap;rounded=0;" vertex="1" parent="vcbYeMagDMkAzuLJpGu_-53">
          <mxGeometry x="2.5" y="5" width="115" height="30" as="geometry" />
        </mxCell>
        <mxCell id="vcbYeMagDMkAzuLJpGu_-56" value="" style="group" vertex="1" connectable="0" parent="1">
          <mxGeometry x="1080" y="240" width="140" height="40" as="geometry" />
        </mxCell>
        <mxCell id="vcbYeMagDMkAzuLJpGu_-57" value="" style="rounded=1;whiteSpace=wrap;html=1;" vertex="1" parent="vcbYeMagDMkAzuLJpGu_-56">
          <mxGeometry width="120" height="40" as="geometry" />
        </mxCell>
        <mxCell id="vcbYeMagDMkAzuLJpGu_-58" value="pyTrends" style="text;html=1;strokeColor=none;fillColor=none;align=center;verticalAlign=middle;whiteSpace=wrap;rounded=0;" vertex="1" parent="vcbYeMagDMkAzuLJpGu_-56">
          <mxGeometry x="2.5" y="5" width="115" height="30" as="geometry" />
        </mxCell>
        <mxCell id="vcbYeMagDMkAzuLJpGu_-59" style="edgeStyle=orthogonalEdgeStyle;rounded=0;orthogonalLoop=1;jettySize=auto;html=1;exitX=1;exitY=0.5;exitDx=0;exitDy=0;entryX=0;entryY=0.5;entryDx=0;entryDy=0;" edge="1" parent="1" source="vcbYeMagDMkAzuLJpGu_-46" target="vcbYeMagDMkAzuLJpGu_-52">
          <mxGeometry relative="1" as="geometry">
            <Array as="points">
              <mxPoint x="1041" y="180" />
              <mxPoint x="1041" y="100" />
            </Array>
          </mxGeometry>
        </mxCell>
        <mxCell id="vcbYeMagDMkAzuLJpGu_-62" value="" style="endArrow=classic;html=1;rounded=0;entryX=0;entryY=0.5;entryDx=0;entryDy=0;" edge="1" parent="1" target="vcbYeMagDMkAzuLJpGu_-55">
          <mxGeometry width="50" height="50" relative="1" as="geometry">
            <mxPoint x="1040" y="180" as="sourcePoint" />
            <mxPoint x="1140" y="190" as="targetPoint" />
          </mxGeometry>
        </mxCell>
        <mxCell id="vcbYeMagDMkAzuLJpGu_-63" style="edgeStyle=orthogonalEdgeStyle;rounded=0;orthogonalLoop=1;jettySize=auto;html=1;exitX=1;exitY=0.5;exitDx=0;exitDy=0;entryX=0;entryY=0.5;entryDx=0;entryDy=0;" edge="1" parent="1" source="vcbYeMagDMkAzuLJpGu_-46" target="vcbYeMagDMkAzuLJpGu_-57">
          <mxGeometry relative="1" as="geometry" />
        </mxCell>
        <mxCell id="vcbYeMagDMkAzuLJpGu_-78" style="edgeStyle=orthogonalEdgeStyle;rounded=0;orthogonalLoop=1;jettySize=auto;html=1;exitX=0.5;exitY=0;exitDx=0;exitDy=0;exitPerimeter=0;entryX=0;entryY=0.5;entryDx=0;entryDy=0;" edge="1" parent="1" source="vcbYeMagDMkAzuLJpGu_-65" target="vcbYeMagDMkAzuLJpGu_-76">
          <mxGeometry relative="1" as="geometry" />
        </mxCell>
        <mxCell id="vcbYeMagDMkAzuLJpGu_-65" value="" style="shape=cylinder3;whiteSpace=wrap;html=1;boundedLbl=1;backgroundOutline=1;size=15;gradientColor=none;rotation=90;" vertex="1" parent="1">
          <mxGeometry x="1282.5" y="122.5" width="40" height="115" as="geometry" />
        </mxCell>
        <mxCell id="vcbYeMagDMkAzuLJpGu_-66" style="edgeStyle=orthogonalEdgeStyle;rounded=0;orthogonalLoop=1;jettySize=auto;html=1;exitX=1;exitY=0.5;exitDx=0;exitDy=0;entryX=0.5;entryY=1;entryDx=0;entryDy=0;entryPerimeter=0;" edge="1" parent="1" source="vcbYeMagDMkAzuLJpGu_-52" target="vcbYeMagDMkAzuLJpGu_-65">
          <mxGeometry relative="1" as="geometry" />
        </mxCell>
        <mxCell id="vcbYeMagDMkAzuLJpGu_-69" style="edgeStyle=orthogonalEdgeStyle;rounded=0;orthogonalLoop=1;jettySize=auto;html=1;exitX=1;exitY=0.5;exitDx=0;exitDy=0;entryX=0.5;entryY=1;entryDx=0;entryDy=0;entryPerimeter=0;" edge="1" parent="1" source="vcbYeMagDMkAzuLJpGu_-55" target="vcbYeMagDMkAzuLJpGu_-65">
          <mxGeometry relative="1" as="geometry" />
        </mxCell>
        <mxCell id="vcbYeMagDMkAzuLJpGu_-72" style="edgeStyle=orthogonalEdgeStyle;rounded=0;orthogonalLoop=1;jettySize=auto;html=1;exitX=1;exitY=0.5;exitDx=0;exitDy=0;entryX=0.5;entryY=1;entryDx=0;entryDy=0;entryPerimeter=0;" edge="1" parent="1" source="vcbYeMagDMkAzuLJpGu_-58" target="vcbYeMagDMkAzuLJpGu_-65">
          <mxGeometry relative="1" as="geometry" />
        </mxCell>
        <mxCell id="vcbYeMagDMkAzuLJpGu_-75" value="" style="group" vertex="1" connectable="0" parent="1">
          <mxGeometry x="1400" y="160" width="120" height="40" as="geometry" />
        </mxCell>
        <mxCell id="vcbYeMagDMkAzuLJpGu_-76" value="" style="rounded=1;whiteSpace=wrap;html=1;" vertex="1" parent="vcbYeMagDMkAzuLJpGu_-75">
          <mxGeometry width="120" height="40" as="geometry" />
        </mxCell>
        <mxCell id="vcbYeMagDMkAzuLJpGu_-77" value="LLM Server" style="text;html=1;strokeColor=none;fillColor=none;align=center;verticalAlign=middle;whiteSpace=wrap;rounded=0;" vertex="1" parent="vcbYeMagDMkAzuLJpGu_-75">
          <mxGeometry x="25" y="5" width="70" height="30" as="geometry" />
        </mxCell>
        <mxCell id="vcbYeMagDMkAzuLJpGu_-95" value="" style="group" vertex="1" connectable="0" parent="vcbYeMagDMkAzuLJpGu_-75">
          <mxGeometry width="120" height="40" as="geometry" />
        </mxCell>
        <mxCell id="vcbYeMagDMkAzuLJpGu_-96" value="" style="rounded=1;whiteSpace=wrap;html=1;" vertex="1" parent="vcbYeMagDMkAzuLJpGu_-95">
          <mxGeometry width="120" height="40" as="geometry" />
        </mxCell>
        <mxCell id="vcbYeMagDMkAzuLJpGu_-97" value="LLM Server" style="text;html=1;strokeColor=none;fillColor=none;align=center;verticalAlign=middle;whiteSpace=wrap;rounded=0;" vertex="1" parent="vcbYeMagDMkAzuLJpGu_-95">
          <mxGeometry x="25" y="5" width="70" height="30" as="geometry" />
        </mxCell>
        <mxCell id="vcbYeMagDMkAzuLJpGu_-80" style="edgeStyle=orthogonalEdgeStyle;rounded=0;orthogonalLoop=1;jettySize=auto;html=1;" edge="1" parent="1" source="vcbYeMagDMkAzuLJpGu_-120">
          <mxGeometry relative="1" as="geometry">
            <mxPoint x="1560" y="220" as="targetPoint" />
            <Array as="points">
              <mxPoint x="1561" y="190" />
              <mxPoint x="1561" y="220" />
            </Array>
          </mxGeometry>
        </mxCell>
        <mxCell id="vcbYeMagDMkAzuLJpGu_-104" value="" style="group" vertex="1" connectable="0" parent="1">
          <mxGeometry x="1410" y="170" width="120" height="40" as="geometry" />
        </mxCell>
        <mxCell id="vcbYeMagDMkAzuLJpGu_-105" value="" style="rounded=1;whiteSpace=wrap;html=1;" vertex="1" parent="vcbYeMagDMkAzuLJpGu_-104">
          <mxGeometry width="120" height="40" as="geometry" />
        </mxCell>
        <mxCell id="vcbYeMagDMkAzuLJpGu_-106" value="LLM Server" style="text;html=1;strokeColor=none;fillColor=none;align=center;verticalAlign=middle;whiteSpace=wrap;rounded=0;" vertex="1" parent="vcbYeMagDMkAzuLJpGu_-104">
          <mxGeometry x="25" y="5" width="70" height="30" as="geometry" />
        </mxCell>
        <mxCell id="vcbYeMagDMkAzuLJpGu_-107" value="" style="group" vertex="1" connectable="0" parent="vcbYeMagDMkAzuLJpGu_-104">
          <mxGeometry width="120" height="40" as="geometry" />
        </mxCell>
        <mxCell id="vcbYeMagDMkAzuLJpGu_-108" value="" style="rounded=1;whiteSpace=wrap;html=1;" vertex="1" parent="vcbYeMagDMkAzuLJpGu_-107">
          <mxGeometry width="120" height="40" as="geometry" />
        </mxCell>
        <mxCell id="vcbYeMagDMkAzuLJpGu_-109" value="LLM Server" style="text;html=1;strokeColor=none;fillColor=none;align=center;verticalAlign=middle;whiteSpace=wrap;rounded=0;" vertex="1" parent="vcbYeMagDMkAzuLJpGu_-107">
          <mxGeometry x="25" y="5" width="70" height="30" as="geometry" />
        </mxCell>
        <mxCell id="vcbYeMagDMkAzuLJpGu_-116" value="" style="group" vertex="1" connectable="0" parent="1">
          <mxGeometry x="1420" y="180" width="120" height="40" as="geometry" />
        </mxCell>
        <mxCell id="vcbYeMagDMkAzuLJpGu_-117" value="" style="rounded=1;whiteSpace=wrap;html=1;" vertex="1" parent="vcbYeMagDMkAzuLJpGu_-116">
          <mxGeometry width="120" height="40" as="geometry" />
        </mxCell>
        <mxCell id="vcbYeMagDMkAzuLJpGu_-118" value="LLM Server" style="text;html=1;strokeColor=none;fillColor=none;align=center;verticalAlign=middle;whiteSpace=wrap;rounded=0;" vertex="1" parent="vcbYeMagDMkAzuLJpGu_-116">
          <mxGeometry x="25" y="5" width="70" height="30" as="geometry" />
        </mxCell>
        <mxCell id="vcbYeMagDMkAzuLJpGu_-119" value="" style="group" vertex="1" connectable="0" parent="vcbYeMagDMkAzuLJpGu_-116">
          <mxGeometry width="120" height="40" as="geometry" />
        </mxCell>
        <mxCell id="vcbYeMagDMkAzuLJpGu_-120" value="" style="rounded=1;whiteSpace=wrap;html=1;" vertex="1" parent="vcbYeMagDMkAzuLJpGu_-119">
          <mxGeometry width="120" height="40" as="geometry" />
        </mxCell>
        <mxCell id="vcbYeMagDMkAzuLJpGu_-121" value="LLM Servers" style="text;html=1;strokeColor=none;fillColor=none;align=center;verticalAlign=middle;whiteSpace=wrap;rounded=0;" vertex="1" parent="vcbYeMagDMkAzuLJpGu_-119">
          <mxGeometry x="17.5" y="5" width="85" height="30" as="geometry" />
        </mxCell>
        <mxCell id="vcbYeMagDMkAzuLJpGu_-122" value="" style="shape=datastore;whiteSpace=wrap;html=1;" vertex="1" parent="1">
          <mxGeometry x="1530" y="220" width="60" height="60" as="geometry" />
        </mxCell>
        <mxCell id="vcbYeMagDMkAzuLJpGu_-129" value="TTL Cache DB" style="text;html=1;strokeColor=none;fillColor=none;align=center;verticalAlign=middle;whiteSpace=wrap;rounded=0;" vertex="1" parent="1">
          <mxGeometry x="1517.5" y="280" width="85" height="30" as="geometry" />
        </mxCell>
        <mxCell id="vcbYeMagDMkAzuLJpGu_-132" value="" style="group" vertex="1" connectable="0" parent="1">
          <mxGeometry x="70" y="340" width="90" height="100" as="geometry" />
        </mxCell>
        <mxCell id="vcbYeMagDMkAzuLJpGu_-130" value="" style="rhombus;whiteSpace=wrap;html=1;" vertex="1" parent="vcbYeMagDMkAzuLJpGu_-132">
          <mxGeometry width="80" height="80" as="geometry" />
        </mxCell>
        <mxCell id="vcbYeMagDMkAzuLJpGu_-131" value="user history" style="text;html=1;strokeColor=none;fillColor=none;align=center;verticalAlign=middle;whiteSpace=wrap;rounded=0;" vertex="1" parent="vcbYeMagDMkAzuLJpGu_-132">
          <mxGeometry x="5" y="25" width="70" height="30" as="geometry" />
        </mxCell>
        <mxCell id="vcbYeMagDMkAzuLJpGu_-139" value="Yes" style="text;html=1;strokeColor=none;fillColor=none;align=center;verticalAlign=middle;whiteSpace=wrap;rounded=0;" vertex="1" parent="vcbYeMagDMkAzuLJpGu_-132">
          <mxGeometry x="30" y="70" width="60" height="30" as="geometry" />
        </mxCell>
        <mxCell id="vcbYeMagDMkAzuLJpGu_-133" style="edgeStyle=orthogonalEdgeStyle;rounded=0;orthogonalLoop=1;jettySize=auto;html=1;exitX=1;exitY=0.5;exitDx=0;exitDy=0;entryX=0.5;entryY=0;entryDx=0;entryDy=0;" edge="1" parent="1" source="vcbYeMagDMkAzuLJpGu_-130" target="vcbYeMagDMkAzuLJpGu_-20">
          <mxGeometry relative="1" as="geometry" />
        </mxCell>
        <mxCell id="vcbYeMagDMkAzuLJpGu_-137" style="edgeStyle=orthogonalEdgeStyle;rounded=0;orthogonalLoop=1;jettySize=auto;html=1;exitX=1;exitY=0.5;exitDx=0;exitDy=0;" edge="1" parent="1" source="vcbYeMagDMkAzuLJpGu_-135" target="vcbYeMagDMkAzuLJpGu_-20">
          <mxGeometry relative="1" as="geometry" />
        </mxCell>
        <mxCell id="vcbYeMagDMkAzuLJpGu_-135" value="preference recommendation" style="rounded=1;whiteSpace=wrap;html=1;" vertex="1" parent="1">
          <mxGeometry x="50" y="440" width="120" height="40" as="geometry" />
        </mxCell>
        <mxCell id="vcbYeMagDMkAzuLJpGu_-136" style="edgeStyle=orthogonalEdgeStyle;rounded=0;orthogonalLoop=1;jettySize=auto;html=1;exitX=0.5;exitY=1;exitDx=0;exitDy=0;entryX=0.5;entryY=0;entryDx=0;entryDy=0;" edge="1" parent="1" source="vcbYeMagDMkAzuLJpGu_-130" target="vcbYeMagDMkAzuLJpGu_-135">
          <mxGeometry relative="1" as="geometry" />
        </mxCell>
        <mxCell id="vcbYeMagDMkAzuLJpGu_-138" value="No" style="text;html=1;strokeColor=none;fillColor=none;align=center;verticalAlign=middle;whiteSpace=wrap;rounded=0;" vertex="1" parent="1">
          <mxGeometry x="160" y="350" width="60" height="30" as="geometry" />
        </mxCell>
      </root>
    </mxGraphModel>
  </diagram>
</mxfile>
